<?xml version="1.0" standalone="no"?>
<!DOCTYPE svg PUBLIC "-//W3C//DTD SVG 20010904//EN"
 "http://www.w3.org/TR/2001/REC-SVG-20010904/DTD/svg10.dtd">
<svg version="1.0" xmlns="http://www.w3.org/2000/svg"
 width="1125.000000pt" height="1125.000000pt" viewBox="0 0 1125.000000 1125.000000"
 preserveAspectRatio="xMidYMid meet">
<metadata>
Created by potrace 1.14, written by Peter Selinger 2001-2017
</metadata>
<g transform="translate(0.000000,1125.000000) scale(0.100000,-0.100000)"
fill="#000000" stroke="none">
<path d="M5447 10069 c-78 -11 -191 -46 -252 -77 -64 -32 -412 -229 -445 -252
-14 -9 -52 -32 -85 -50 -33 -18 -145 -83 -250 -143 -302 -175 -627 -362 -800
-462 -88 -51 -231 -134 -317 -184 -86 -50 -172 -99 -190 -109 -76 -43 -454
-261 -588 -340 -80 -47 -170 -99 -200 -115 -30 -17 -72 -41 -92 -54 -21 -13
-40 -23 -43 -23 -3 0 -45 -25 -93 -56 -144 -93 -276 -243 -359 -409 -33 -65
-80 -190 -88 -233 -3 -15 -7 -38 -10 -52 -5 -23 -7 -1275 -5 -3070 1 -642 2
-690 20 -762 52 -207 189 -432 342 -558 66 -56 49 -45 783 -470 121 -70 244
-141 273 -159 29 -17 54 -31 56 -31 2 0 63 -35 137 -78 74 -43 154 -90 179
-104 58 -33 831 -479 1063 -614 98 -57 183 -104 188 -104 5 0 9 -4 9 -10 0 -5
5 -10 10 -10 6 0 90 -47 188 -104 246 -144 316 -181 397 -211 39 -15 71 -26
73 -25 1 1 26 -3 55 -9 109 -21 266 -29 337 -17 14 2 48 8 75 12 84 12 166 35
211 59 16 8 32 15 36 15 3 0 42 21 85 46 78 47 96 57 208 121 33 19 67 38 75
43 13 9 584 338 680 393 47 26 190 109 215 124 11 7 27 15 35 19 8 4 43 25 78
46 34 21 64 38 66 38 2 0 45 25 95 55 51 30 94 55 97 55 3 0 18 8 32 19 15 10
49 31 77 46 27 15 122 69 210 120 88 51 264 152 390 225 127 73 287 166 358
206 70 41 187 108 260 150 179 104 211 127 294 211 146 149 247 338 295 553
19 86 17 3711 -2 3795 -8 33 -14 62 -15 65 -24 107 -95 248 -205 404 -57 81
-196 195 -320 263 -57 31 -442 253 -610 352 -52 31 -99 58 -105 60 -5 2 -91
51 -190 109 -99 57 -209 121 -245 142 -96 56 -422 244 -445 258 -74 42 -483
278 -645 372 -107 62 -215 124 -240 138 -25 14 -101 58 -170 97 -328 190 -389
223 -459 246 -36 11 -97 27 -136 34 -81 14 -293 17 -378 4z"/>
</g>
</svg>
